<?xml version="1.0" standalone="no"?>
<!DOCTYPE svg PUBLIC "-//W3C//DTD SVG 20010904//EN"
 "http://www.w3.org/TR/2001/REC-SVG-20010904/DTD/svg10.dtd">
<svg version="1.0" xmlns="http://www.w3.org/2000/svg"
 width="512.000000pt" height="512.000000pt" viewBox="0 0 512.000000 512.000000"
 preserveAspectRatio="xMidYMid meet">
<metadata>
Created by potrace 1.14, written by Peter Selinger 2001-2017
</metadata>
<g transform="translate(0.000000,512.000000) scale(0.100000,-0.100000)"
fill="#000000" stroke="none">
<path d="M2537 4774 c-1 -1 -36 -4 -77 -7 -197 -15 -386 -99 -559 -248 -47
-41 -58 -74 -34 -101 26 -28 50 -22 111 30 160 137 326 206 523 219 246 15
482 -71 666 -242 35 -31 68 -32 88 -1 20 30 12 49 -43 100 -123 113 -291 196
-467 230 -68 13 -201 26 -208 20z"/>
<path d="M2475 4518 c-143 -18 -283 -80 -388 -171 -66 -57 -73 -90 -26 -116
26 -14 29 -13 90 37 126 103 270 152 431 147 140 -4 279 -58 388 -151 57 -49
65 -51 98 -28 32 22 27 52 -16 93 -146 139 -377 214 -577 189z"/>
<path d="M2445 4255 c-27 -7 -66 -20 -86 -28 -37 -17 -128 -81 -141 -101 -23
-33 8 -87 46 -80 10 1 35 16 55 32 97 78 212 105 335 78 40 -9 116 -50 146
-78 36 -35 59 -41 86 -23 37 24 31 57 -20 102 -110 97 -276 136 -421 98z"/>
<path d="M520 3900 c-142 -26 -217 -183 -146 -304 51 -88 112 -111 263 -101
59 4 116 8 127 10 12 2 53 6 91 10 94 9 125 13 225 31 47 9 98 18 113 21 16 2
47 11 69 19 62 22 65 20 64 -41 0 -30 -3 -55 -6 -56 -3 0 -40 -1 -84 -3 -102
-2 -106 -7 -106 -143 l0 -103 -37 0 c-389 -2 -410 -4 -475 -62 -64 -56 -89
-171 -55 -251 19 -43 75 -102 115 -120 19 -8 144 -14 410 -17 l383 -5 -206
-275 c-114 -151 -213 -287 -221 -302 -26 -50 -23 -107 12 -238 19 -69 43 -161
55 -205 12 -44 26 -93 31 -110 5 -16 45 -165 89 -330 44 -165 87 -314 95 -332
28 -62 109 -101 183 -88 l36 6 0 -202 c0 -132 4 -214 12 -237 16 -49 70 -101
119 -115 56 -16 1736 -15 1775 1 44 18 97 71 110 110 9 25 13 104 14 237 l1
200 45 -3 c77 -6 155 40 180 105 5 13 34 117 65 231 30 114 87 324 126 467 38
143 78 290 88 327 19 71 18 133 -1 170 -10 20 -93 136 -126 178 -7 8 -78 103
-158 210 l-146 195 388 5 389 5 49 35 c51 37 91 100 98 155 11 86 -35 178
-112 223 -45 26 -51 27 -219 30 -96 1 -191 2 -213 2 l-39 0 0 103 c0 136 -4
141 -107 144 -43 1 -81 2 -84 3 -8 0 -6 96 2 105 4 3 40 -3 80 -15 82 -22 161
-38 229 -46 25 -3 56 -7 70 -9 14 -3 50 -7 80 -10 30 -3 73 -8 95 -10 221 -23
291 -16 348 39 49 47 68 89 68 149 1 83 -40 150 -115 189 -39 20 -110 24 -231
13 -199 -19 -295 -30 -400 -50 -127 -23 -132 -24 -213 -53 -75 -27 -78 -27
-112 -10 -35 17 -165 53 -230 63 -19 3 -46 7 -60 10 -24 5 -50 8 -152 20 -24
3 -61 7 -83 10 -68 8 -218 18 -264 17 -182 -5 -267 -228 -134 -354 53 -51 95
-61 216 -53 60 4 117 8 126 10 9 1 52 6 95 10 43 4 87 8 96 10 9 2 41 6 71 10
30 3 61 8 69 10 8 2 31 7 50 10 19 3 68 15 108 25 40 11 74 20 77 20 3 0 5
-25 5 -55 0 -61 4 -58 -85 -57 -59 1 -102 -13 -107 -36 -2 -9 -4 -61 -3 -114
l1 -98 -41 0 c-315 -4 -1819 0 -1823 5 -4 3 -7 54 -7 112 -2 126 -3 128 -115
128 l-75 0 -3 58 c-2 31 -1 57 1 57 2 0 39 -9 83 -20 109 -28 248 -52 389 -66
28 -3 68 -7 90 -9 166 -17 237 -17 280 -1 83 32 139 122 133 212 -4 59 -55
134 -110 162 -54 28 -150 30 -348 7 -19 -2 -60 -7 -90 -10 -190 -22 -408 -70
-456 -100 -18 -11 -27 -11 -62 5 -77 34 -287 79 -447 95 -33 4 -76 8 -95 10
-19 3 -80 7 -135 11 -55 3 -102 7 -105 8 -3 2 -21 0 -40 -4z m1384 -1622 c6
-4 302 -8 658 -8 558 0 649 2 661 15 9 8 36 46 62 85 26 38 50 70 54 70 4 0
72 -86 151 -190 l143 -190 -18 -108 c-9 -59 -19 -114 -20 -122 -2 -8 -4 -25
-4 -37 -1 -13 -4 -23 -8 -23 -5 0 -9 31 -10 69 -2 109 -44 171 -133 200 -26 8
-273 11 -890 10 -832 -1 -856 -1 -897 -21 -80 -38 -111 -103 -108 -226 3 -113
0 -104 -35 115 l-23 142 148 196 147 196 56 -83 c30 -46 60 -86 66 -90z"/>
</g>
</svg>
